<svg version="1.1" id="Layer_1" xmlns="http://www.w3.org/2000/svg" xmlns:xlink="http://www.w3.org/1999/xlink" x="0px" y="0px"
	 width="100%" viewBox="0 0 1000 1000" enable-background="new 0 0 1000 1000" xml:space="preserve">
<path fill="transparent" opacity="1.000000" stroke="none" 
	d="
M553.000000,1001.000000 
	C368.666656,1001.000000 184.833328,1001.000000 1.000000,1001.000000 
	C1.000000,667.666687 1.000000,334.333344 1.000000,1.000000 
	C334.333344,1.000000 667.666687,1.000000 1001.000000,1.000000 
	C1001.000000,334.333344 1001.000000,667.666687 1001.000000,1001.000000 
	C851.833313,1001.000000 702.666687,1001.000000 553.000000,1001.000000 
M95.706993,614.611023 
	C95.605988,634.942200 94.954468,655.292053 95.641602,675.596558 
	C95.973610,685.407349 97.819611,695.446106 100.751442,704.828125 
	C105.947487,721.455933 118.081589,732.807312 132.684036,741.598877 
	C179.984177,770.076111 227.366119,798.417664 274.634308,826.947693 
	C337.802734,865.074890 400.928833,903.272583 463.986755,941.582092 
	C475.439331,948.539856 487.325287,953.270630 500.969696,953.014648 
	C513.865234,952.772644 525.156738,948.024963 535.998413,941.595825 
	C570.196655,921.316223 604.425842,901.088745 638.654663,880.860779 
	C674.855957,859.467163 711.067200,838.090576 747.280273,816.716980 
	C785.231140,794.317688 823.072021,771.728516 861.197388,749.630249 
	C878.420654,739.647278 891.976257,726.959839 899.044128,707.835693 
	C903.851379,694.828064 903.608093,681.390381 903.693420,667.990417 
	C904.414001,554.837646 905.034973,441.684052 905.510559,328.529968 
	C905.568359,314.780426 905.447205,300.909760 899.856567,287.870422 
	C892.921753,271.695862 880.374512,260.687958 865.757446,251.993805 
	C831.438660,231.581223 796.845276,211.630936 762.437805,191.366638 
	C723.763489,168.589447 685.166809,145.680649 646.544922,122.814522 
	C609.315063,100.772522 572.125122,78.662857 534.851501,56.695114 
	C525.924744,51.433987 516.320129,47.976143 505.817749,47.393471 
	C492.769104,46.669529 481.095673,50.708851 469.938873,57.092537 
	C416.029266,87.938416 362.101166,118.752281 308.115906,149.465561 
	C252.089218,181.340225 195.958054,213.031342 139.941605,244.924011 
	C123.958008,254.024185 110.241135,265.527710 102.756264,283.009247 
	C98.078865,293.933716 97.318642,305.527740 97.253586,317.172363 
	C96.701530,415.996552 96.216759,514.821167 95.706993,614.611023 
z"/>
<path fill="#FFFFFF" opacity="1.000000" stroke="none" 
	d="
M95.709404,614.128296 
	C96.216759,514.821167 96.701530,415.996552 97.253586,317.172363 
	C97.318642,305.527740 98.078865,293.933716 102.756264,283.009247 
	C110.241135,265.527710 123.958008,254.024185 139.941605,244.924011 
	C195.958054,213.031342 252.089218,181.340225 308.115906,149.465561 
	C362.101166,118.752281 416.029266,87.938416 469.938873,57.092537 
	C481.095673,50.708851 492.769104,46.669529 505.817749,47.393471 
	C516.320129,47.976143 525.924744,51.433987 534.851501,56.695114 
	C572.125122,78.662857 609.315063,100.772522 646.544922,122.814522 
	C685.166809,145.680649 723.763489,168.589447 762.437805,191.366638 
	C796.845276,211.630936 831.438660,231.581223 865.757446,251.993805 
	C880.374512,260.687958 892.921753,271.695862 899.856567,287.870422 
	C905.447205,300.909760 905.568359,314.780426 905.510559,328.529968 
	C905.034973,441.684052 904.414001,554.837646 903.693420,667.990417 
	C903.608093,681.390381 903.851379,694.828064 899.044128,707.835693 
	C891.976257,726.959839 878.420654,739.647278 861.197388,749.630249 
	C823.072021,771.728516 785.231140,794.317688 747.280273,816.716980 
	C711.067200,838.090576 674.855957,859.467163 638.654663,880.860779 
	C604.425842,901.088745 570.196655,921.316223 535.998413,941.595825 
	C525.156738,948.024963 513.865234,952.772644 500.969696,953.014648 
	C487.325287,953.270630 475.439331,948.539856 463.986755,941.582092 
	C400.928833,903.272583 337.802734,865.074890 274.634308,826.947693 
	C227.366119,798.417664 179.984177,770.076111 132.684036,741.598877 
	C118.081589,732.807312 105.947487,721.455933 100.751442,704.828125 
	C97.819611,695.446106 95.973610,685.407349 95.641602,675.596558 
	C94.954468,655.292053 95.605988,634.942200 95.709404,614.128296 
M730.617432,777.192688 
	C765.029053,756.985535 799.270508,736.480591 833.918579,716.687378 
	C853.415466,705.549622 863.236450,690.406677 863.046509,667.142517 
	C862.545959,605.819214 863.478394,544.484558 863.779480,483.154083 
	C864.039673,430.156769 864.359314,377.158813 864.289551,324.161621 
	C864.277893,315.343567 864.011169,305.938141 856.480896,299.303406 
	C851.626221,295.026093 846.804993,290.520447 841.320862,287.181305 
	C818.827515,273.485809 796.117920,260.143829 773.428223,246.772949 
	C730.756226,221.626541 688.031494,196.569809 645.350403,171.438812 
	C607.798462,149.327881 570.285950,127.149925 532.730713,105.044617 
	C526.884155,101.603287 521.108032,97.932762 514.940247,95.169632 
	C502.039825,89.390289 490.573059,94.809654 479.600372,101.023720 
	C453.226990,115.959534 427.034454,131.214218 400.714233,146.244476 
	C352.688202,173.669876 304.618439,201.018829 256.574768,228.413406 
	C225.193649,246.306946 193.856964,264.278625 162.440109,282.109131 
	C146.369553,291.229919 138.735672,304.968170 138.652405,323.335632 
	C138.323807,395.832550 137.885941,468.328949 137.485535,540.825562 
	C137.252670,582.990295 137.014923,625.155090 136.777451,667.319824 
	C136.682846,684.117432 142.767395,697.771790 157.459595,706.693115 
	C182.818268,722.091125 208.334808,737.228821 233.720703,752.582153 
	C274.548157,777.274353 315.335632,802.032654 356.116852,826.801147 
	C397.339600,851.837769 438.489319,876.995117 479.785706,901.909546 
	C486.596039,906.018250 494.034332,909.989929 502.302856,908.316345 
	C508.187561,907.125366 514.089355,904.800598 519.320251,901.818298 
	C537.464050,891.474060 555.300842,880.592285 573.285767,869.967957 
	C625.496399,839.125366 677.722229,808.308472 730.617432,777.192688 
z"/>
<path fill="transparent" opacity="1.000000" stroke="none" 
	d="
M730.279785,777.337097 
	C677.722229,808.308472 625.496399,839.125366 573.285767,869.967957 
	C555.300842,880.592285 537.464050,891.474060 519.320251,901.818298 
	C514.089355,904.800598 508.187561,907.125366 502.302856,908.316345 
	C494.034332,909.989929 486.596039,906.018250 479.785706,901.909546 
	C438.489319,876.995117 397.339600,851.837769 356.116852,826.801147 
	C315.335632,802.032654 274.548157,777.274353 233.720703,752.582153 
	C208.334808,737.228821 182.818268,722.091125 157.459595,706.693115 
	C142.767395,697.771790 136.682846,684.117432 136.777451,667.319824 
	C137.014923,625.155090 137.252670,582.990295 137.485535,540.825562 
	C137.885941,468.328949 138.323807,395.832550 138.652405,323.335632 
	C138.735672,304.968170 146.369553,291.229919 162.440109,282.109131 
	C193.856964,264.278625 225.193649,246.306946 256.574768,228.413406 
	C304.618439,201.018829 352.688202,173.669876 400.714233,146.244476 
	C427.034454,131.214218 453.226990,115.959534 479.600372,101.023720 
	C490.573059,94.809654 502.039825,89.390289 514.940247,95.169632 
	C521.108032,97.932762 526.884155,101.603287 532.730713,105.044617 
	C570.285950,127.149925 607.798462,149.327881 645.350403,171.438812 
	C688.031494,196.569809 730.756226,221.626541 773.428223,246.772949 
	C796.117920,260.143829 818.827515,273.485809 841.320862,287.181305 
	C846.804993,290.520447 851.626221,295.026093 856.480896,299.303406 
	C864.011169,305.938141 864.277893,315.343567 864.289551,324.161621 
	C864.359314,377.158813 864.039673,430.156769 863.779480,483.154083 
	C863.478394,544.484558 862.545959,605.819214 863.046509,667.142517 
	C863.236450,690.406677 853.415466,705.549622 833.918579,716.687378 
	C799.270508,736.480591 765.029053,756.985535 730.279785,777.337097 
M204.437363,352.931335 
	C205.245407,356.657501 206.229553,360.355499 206.831100,364.114685 
	C209.470276,380.607819 214.829712,396.201843 222.502304,410.975342 
	C235.525909,436.052246 254.587646,456.013489 277.945770,471.262360 
	C301.084442,486.368042 325.310791,499.837738 349.315002,513.579590 
	C377.245544,529.569214 405.560730,544.981995 430.174530,565.979187 
	C445.476135,579.032410 458.486603,593.902649 463.914917,614.158081 
	C466.756989,624.763245 467.181946,634.649475 460.285767,643.876831 
	C454.826141,651.181946 449.454590,658.553406 443.953156,665.826782 
	C439.043121,672.318298 433.911652,678.643921 429.071503,685.185974 
	C426.755859,688.315857 426.460907,691.733521 428.278595,695.487244 
	C450.190674,740.738525 471.988037,786.045349 493.930969,831.281677 
	C495.234192,833.968201 497.522278,836.177002 499.352051,838.608154 
	C501.365356,836.173706 503.896790,834.005859 505.308167,831.261841 
	C514.748535,812.908081 524.096313,794.503296 533.193604,775.977295 
	C545.469116,750.979004 557.370178,725.796448 569.697998,700.824280 
	C573.417603,693.289368 572.600220,687.181519 567.134338,680.779785 
	C558.500000,670.667175 550.196777,660.242310 542.269775,649.566223 
	C537.453430,643.079529 531.990784,635.940735 533.098511,627.557739 
	C534.275452,618.651184 536.621948,609.451355 540.612427,601.454834 
	C549.757324,583.129333 563.648682,568.061707 580.593750,557.029480 
	C605.139160,541.048950 630.642883,526.472900 656.226685,512.172546 
	C685.432251,495.847900 715.920532,481.706390 741.416565,459.406769 
	C758.352844,444.593781 772.758911,427.554657 782.896790,407.564575 
	C795.720337,382.278870 800.498840,354.859619 800.384338,326.595703 
	C800.375549,324.421509 799.399353,322.251282 798.646667,319.146332 
	C793.793701,322.146790 789.837402,324.823761 785.674438,327.127228 
	C766.254761,337.872772 746.854980,348.658295 727.304199,359.161774 
	C696.277161,375.830780 664.886414,391.758423 632.282104,405.196960 
	C599.900391,418.543823 571.980225,438.261200 550.493591,466.010590 
	C530.835510,491.398590 515.790100,519.622375 503.444580,549.262512 
	C502.486359,551.563110 501.342163,553.786255 499.909180,556.846863 
	C498.937744,554.758606 498.452545,553.883667 498.110596,552.955933 
	C488.553528,527.028625 475.384338,502.952271 460.410492,479.830750 
	C440.651276,449.319946 414.914734,425.393036 381.966248,409.606750 
	C356.752930,397.526489 331.010834,386.457306 306.333618,373.373596 
	C273.729675,356.087158 240.071442,340.618439 209.471634,319.679901 
	C207.844742,318.566711 205.671707,318.251587 201.989334,316.933807 
	C202.808350,329.631683 203.531815,340.848206 204.437363,352.931335 
M405.124878,608.801880 
	C396.587921,613.845276 387.428284,616.936218 377.570984,618.285767 
	C353.492249,621.582275 333.311340,615.205139 318.050537,595.454407 
	C302.394806,575.192566 296.130768,552.723816 300.912537,527.330139 
	C302.791656,517.350952 302.463959,516.683228 292.848572,513.106567 
	C283.736298,509.717163 274.435852,506.792816 265.086060,504.127106 
	C263.692932,503.729950 260.724518,505.450928 259.986176,506.937592 
	C258.783234,509.359650 258.491943,512.383667 258.382782,515.175842 
	C257.591431,535.411560 255.582031,555.596985 260.612976,575.747253 
	C266.106903,597.751892 275.951263,617.388184 292.428558,632.699951 
	C308.582458,647.711304 327.299164,658.705872 349.735321,662.908447 
	C362.139526,665.231934 374.003204,663.893127 385.699432,661.198730 
	C407.283905,656.226440 421.021576,641.062622 431.658386,622.659180 
	C432.433411,621.318237 432.664642,619.037109 432.077087,617.645569 
	C429.824646,612.311218 427.336914,607.050476 424.548309,601.975769 
	C422.015594,597.366699 419.827362,597.077393 415.816803,600.243408 
	C412.424072,602.921692 409.105133,605.693420 405.124878,608.801880 
M633.136292,665.262878 
	C641.405823,664.640076 649.996460,665.238831 657.884766,663.165588 
	C681.611694,656.929504 701.822510,644.539856 716.962097,624.903870 
	C732.903015,604.228516 743.331726,581.153748 743.996460,554.675964 
	C744.358765,540.242249 743.330933,525.771729 742.847534,511.320526 
	C742.740723,508.128601 741.686951,506.252411 737.816833,507.875092 
	C725.947632,512.851562 714.042664,517.754700 702.029968,522.369751 
	C698.478821,523.734009 698.251892,525.634705 698.807495,528.883789 
	C699.753723,534.417236 700.774109,540.053772 700.677246,545.628113 
	C700.381348,562.673401 696.035034,578.554688 686.659668,593.090027 
	C671.058350,617.278198 640.101501,626.406250 614.399963,618.137878 
	C604.066284,614.813538 594.632935,609.752075 586.488220,602.332031 
	C581.032593,597.361877 578.986145,597.965576 575.791931,604.558594 
	C573.629883,609.021118 571.711670,613.608215 569.402283,617.990967 
	C567.593506,621.423706 568.085449,624.362854 570.395020,627.206177 
	C573.534973,631.071716 576.778137,634.855164 579.855042,638.769775 
	C593.203674,655.752380 610.688416,664.498291 633.136292,665.262878 
z"/>
<path fill="#FFFFFF" opacity="1.000000" stroke="none" 
	d="
M204.346313,352.498016 
	C203.531815,340.848206 202.808350,329.631683 201.989334,316.933807 
	C205.671707,318.251587 207.844742,318.566711 209.471634,319.679901 
	C240.071442,340.618439 273.729675,356.087158 306.333618,373.373596 
	C331.010834,386.457306 356.752930,397.526489 381.966248,409.606750 
	C414.914734,425.393036 440.651276,449.319946 460.410492,479.830750 
	C475.384338,502.952271 488.553528,527.028625 498.110596,552.955933 
	C498.452545,553.883667 498.937744,554.758606 499.909180,556.846863 
	C501.342163,553.786255 502.486359,551.563110 503.444580,549.262512 
	C515.790100,519.622375 530.835510,491.398590 550.493591,466.010590 
	C571.980225,438.261200 599.900391,418.543823 632.282104,405.196960 
	C664.886414,391.758423 696.277161,375.830780 727.304199,359.161774 
	C746.854980,348.658295 766.254761,337.872772 785.674438,327.127228 
	C789.837402,324.823761 793.793701,322.146790 798.646667,319.146332 
	C799.399353,322.251282 800.375549,324.421509 800.384338,326.595703 
	C800.498840,354.859619 795.720337,382.278870 782.896790,407.564575 
	C772.758911,427.554657 758.352844,444.593781 741.416565,459.406769 
	C715.920532,481.706390 685.432251,495.847900 656.226685,512.172546 
	C630.642883,526.472900 605.139160,541.048950 580.593750,557.029480 
	C563.648682,568.061707 549.757324,583.129333 540.612427,601.454834 
	C536.621948,609.451355 534.275452,618.651184 533.098511,627.557739 
	C531.990784,635.940735 537.453430,643.079529 542.269775,649.566223 
	C550.196777,660.242310 558.500000,670.667175 567.134338,680.779785 
	C572.600220,687.181519 573.417603,693.289368 569.697998,700.824280 
	C557.370178,725.796448 545.469116,750.979004 533.193604,775.977295 
	C524.096313,794.503296 514.748535,812.908081 505.308167,831.261841 
	C503.896790,834.005859 501.365356,836.173706 499.352051,838.608154 
	C497.522278,836.177002 495.234192,833.968201 493.930969,831.281677 
	C471.988037,786.045349 450.190674,740.738525 428.278595,695.487244 
	C426.460907,691.733521 426.755859,688.315857 429.071503,685.185974 
	C433.911652,678.643921 439.043121,672.318298 443.953156,665.826782 
	C449.454590,658.553406 454.826141,651.181946 460.285767,643.876831 
	C467.181946,634.649475 466.756989,624.763245 463.914917,614.158081 
	C458.486603,593.902649 445.476135,579.032410 430.174530,565.979187 
	C405.560730,544.981995 377.245544,529.569214 349.315002,513.579590 
	C325.310791,499.837738 301.084442,486.368042 277.945770,471.262360 
	C254.587646,456.013489 235.525909,436.052246 222.502304,410.975342 
	C214.829712,396.201843 209.470276,380.607819 206.831100,364.114685 
	C206.229553,360.355499 205.245407,356.657501 204.346313,352.498016 
z"/>
<path fill="#FFFFFF" opacity="1.000000" stroke="none" 
	d="
M405.439209,608.612793 
	C409.105133,605.693420 412.424072,602.921692 415.816803,600.243408 
	C419.827362,597.077393 422.015594,597.366699 424.548309,601.975769 
	C427.336914,607.050476 429.824646,612.311218 432.077087,617.645569 
	C432.664642,619.037109 432.433411,621.318237 431.658386,622.659180 
	C421.021576,641.062622 407.283905,656.226440 385.699432,661.198730 
	C374.003204,663.893127 362.139526,665.231934 349.735321,662.908447 
	C327.299164,658.705872 308.582458,647.711304 292.428558,632.699951 
	C275.951263,617.388184 266.106903,597.751892 260.612976,575.747253 
	C255.582031,555.596985 257.591431,535.411560 258.382782,515.175842 
	C258.491943,512.383667 258.783234,509.359650 259.986176,506.937592 
	C260.724518,505.450928 263.692932,503.729950 265.086060,504.127106 
	C274.435852,506.792816 283.736298,509.717163 292.848572,513.106567 
	C302.463959,516.683228 302.791656,517.350952 300.912537,527.330139 
	C296.130768,552.723816 302.394806,575.192566 318.050537,595.454407 
	C333.311340,615.205139 353.492249,621.582275 377.570984,618.285767 
	C387.428284,616.936218 396.587921,613.845276 405.439209,608.612793 
z"/>
<path fill="#FFFFFF" opacity="1.000000" stroke="none" 
	d="
M632.685425,665.245239 
	C610.688416,664.498291 593.203674,655.752380 579.855042,638.769775 
	C576.778137,634.855164 573.534973,631.071716 570.395020,627.206177 
	C568.085449,624.362854 567.593506,621.423706 569.402283,617.990967 
	C571.711670,613.608215 573.629883,609.021118 575.791931,604.558594 
	C578.986145,597.965576 581.032593,597.361877 586.488220,602.332031 
	C594.632935,609.752075 604.066284,614.813538 614.399963,618.137878 
	C640.101501,626.406250 671.058350,617.278198 686.659668,593.090027 
	C696.035034,578.554688 700.381348,562.673401 700.677246,545.628113 
	C700.774109,540.053772 699.753723,534.417236 698.807495,528.883789 
	C698.251892,525.634705 698.478821,523.734009 702.029968,522.369751 
	C714.042664,517.754700 725.947632,512.851562 737.816833,507.875092 
	C741.686951,506.252411 742.740723,508.128601 742.847534,511.320526 
	C743.330933,525.771729 744.358765,540.242249 743.996460,554.675964 
	C743.331726,581.153748 732.903015,604.228516 716.962097,624.903870 
	C701.822510,644.539856 681.611694,656.929504 657.884766,663.165588 
	C649.996460,665.238831 641.405823,664.640076 632.685425,665.245239 
z"/>
</svg>